<svg width="448" height="128" viewBox="0 0 448 128" fill="none" xmlns="http://www.w3.org/2000/svg">
<path d="M20.8295 99.072C13.6615 97.8773 8.4135 94.7627 5.0855 89.728C1.84283 84.6933 0.2215 78.72 0.2215 71.808C0.2215 66.7733 1.03217 61.5253 2.6535 56.064C4.27483 50.5173 6.57883 45.0987 9.5655 39.808C12.6375 34.5173 16.3068 29.6107 20.5735 25.088C24.8402 20.48 29.6615 16.5547 35.0375 13.312C40.4135 10.0693 46.2588 7.808 52.5735 6.52799C56.4135 5.76 60.0828 5.376 63.5815 5.376C70.4082 5.376 75.8695 6.74133 79.9655 9.47199C84.0615 12.1173 86.1095 15.5307 86.1095 19.712C86.1095 20.5653 86.0242 21.4187 85.8535 22.272C85.7682 23.04 85.5122 23.8933 85.0855 24.832C84.1468 27.3067 82.5682 29.5253 80.3495 31.488C78.2162 33.3653 75.7415 34.816 72.9255 35.84C70.1948 36.864 67.3788 37.2907 64.4775 37.12C63.1122 36.9493 61.9175 36.48 60.8935 35.712C59.9548 34.8587 59.4855 33.8347 59.4855 32.64C59.4855 31.4453 59.9975 30.1653 61.0215 28.8C61.9602 29.1413 63.0268 29.312 64.2215 29.312C66.3548 29.312 68.4455 28.8 70.4935 27.776C72.5415 26.752 74.2482 25.344 75.6135 23.552C76.9788 21.76 77.6615 19.7547 77.6615 17.536C77.6615 14.5493 76.6375 12.5867 74.5895 11.648C72.5415 10.624 70.2375 10.112 67.6775 10.112C65.9708 10.112 64.2642 10.2827 62.5575 10.624C60.9362 10.88 59.6135 11.136 58.5895 11.392C53.7255 12.672 48.7335 15.0187 43.6135 18.432C38.5788 21.76 33.9708 25.856 29.7895 30.72C25.6082 35.4987 22.3655 40.7467 20.0615 46.464C18.3548 50.6453 17.0322 54.8693 16.0935 59.136C15.1548 63.4027 14.6855 67.456 14.6855 71.296C14.6855 76.2453 15.4962 80.5973 17.1175 84.352C18.8242 88.1067 21.5122 90.7093 25.1815 92.16C28.5095 93.44 31.9228 94.08 35.4215 94.08C41.0535 94.08 46.7282 92.7147 52.4455 89.984C58.2482 87.2533 63.5815 83.7973 68.4455 79.616C71.4322 76.9707 74.1202 74.24 76.5095 71.424C78.8988 68.608 80.7335 65.6213 82.0135 62.464C83.6348 63.488 84.4455 64.9813 84.4455 66.944C84.4455 68.48 83.9762 70.144 83.0375 71.936C82.1842 73.728 81.1602 75.392 79.9655 76.928C78.8562 78.464 77.8748 79.6587 77.0215 80.512C71.0482 86.7413 63.8802 91.52 55.5175 94.848C47.2402 98.176 38.8348 99.84 30.3015 99.84C27.0588 99.84 23.9015 99.584 20.8295 99.072ZM123.83 96.768C121.184 96.768 119.35 95.744 118.326 93.696C117.387 91.648 116.918 89.1307 116.918 86.144C116.918 83.4133 117.174 80.7253 117.686 78.08C117.942 76.8853 118.198 75.6907 118.454 74.496C118.795 73.216 119.179 71.8933 119.606 70.528C118.155 73.1733 116.619 75.7333 114.998 78.208C113.462 80.6827 111.883 82.8587 110.262 84.736C107.531 88.064 104.63 90.8373 101.558 93.056C98.5708 95.2747 95.5842 96.384 92.5975 96.384C90.2082 96.384 88.1602 95.5307 86.4535 93.824C84.8322 92.032 84.0215 88.96 84.0215 84.608C84.0215 80.1707 84.7895 75.6053 86.3255 70.912C87.8615 66.2187 89.9948 61.8667 92.7255 57.856C95.5415 53.76 98.8268 50.4747 102.582 48C106.422 45.5253 110.603 44.288 115.126 44.288C116.576 44.288 118.155 44.5013 119.862 44.928C121.568 45.3547 123.147 46.1653 124.598 47.36C126.048 48.4693 127.03 50.048 127.542 52.096C127.627 51.9253 127.712 51.7973 127.798 51.712C127.968 51.6267 128.096 51.5413 128.182 51.456C129.376 49.5787 130.742 48 132.278 46.72C133.814 45.44 135.52 44.8 137.398 44.8C138.336 44.8 139.659 44.8427 141.366 44.928C143.072 45.0133 144.31 45.0133 145.077 44.928C144.651 45.2693 144.054 45.952 143.286 46.976C142.603 48 141.963 49.0667 141.366 50.176C140.768 51.2 140.299 52.0107 139.958 52.608C137.654 57.0453 135.563 61.44 133.686 65.792C131.808 70.144 130.358 74.3253 129.334 78.336C129.078 79.1893 128.907 80 128.822 80.768C128.736 81.4507 128.694 82.1333 128.694 82.816C128.694 85.0347 129.419 86.144 130.87 86.144C132.235 86.144 133.942 85.2907 135.99 83.584C138.976 81.1947 141.579 78.208 143.798 74.624C146.102 71.04 148.107 67.584 149.814 64.256C150.155 63.6587 150.454 63.36 150.71 63.36C151.222 63.36 151.478 64.0853 151.478 65.536C151.478 66.2187 151.35 66.9867 151.094 67.84C150.923 68.6933 150.624 69.504 150.198 70.272C149.003 72.32 147.424 74.8373 145.462 77.824C143.584 80.8107 141.451 83.7547 139.062 86.656C136.672 89.472 134.155 91.8613 131.51 93.824C128.95 95.7867 126.39 96.768 123.83 96.768ZM98.3575 85.632C98.6135 85.7173 98.9975 85.76 99.5095 85.76C101.131 85.76 102.88 85.0773 104.758 83.712C106.635 82.3467 108.512 80.5973 110.39 78.464C112.267 76.2453 113.931 74.0267 115.382 71.808C119.136 65.8347 121.91 61.3547 123.702 58.368C125.494 55.3813 126.518 53.6747 126.774 53.248C126.347 51.7973 125.579 50.7307 124.47 50.048C123.446 49.3653 122.208 49.024 120.758 49.024C118.88 49.024 116.875 49.536 114.742 50.56C112.694 51.584 110.944 52.8213 109.494 54.272C107.275 56.4907 105.142 59.3493 103.094 62.848C101.131 66.3467 99.5095 69.8027 98.2295 73.216C97.0348 76.6293 96.4375 79.488 96.4375 81.792C96.4375 83.9253 97.0775 85.2053 98.3575 85.632ZM125.321 127.744C125.748 127.147 126.303 126.08 126.985 124.544C127.668 123.093 128.393 121.515 129.161 119.808C129.929 118.101 130.569 116.651 131.081 115.456C132.532 111.872 134.196 107.477 136.073 102.272C137.951 97.152 139.871 91.776 141.834 86.144C143.796 80.512 145.674 75.136 147.466 70.016C149.258 64.896 150.836 60.672 152.202 57.344C153.482 54.272 154.591 51.84 155.53 50.048C156.468 48.1707 157.791 46.848 159.498 46.08C161.29 45.2267 163.978 44.8 167.562 44.8H171.402C170.207 45.6533 168.628 47.616 166.666 50.688C164.788 53.6747 162.996 56.832 161.29 60.16C161.887 59.392 162.442 58.6667 162.954 57.984C163.466 57.216 164.02 56.5333 164.618 55.936C167.348 52.608 170.25 49.8347 173.322 47.616C176.394 45.3973 179.38 44.288 182.282 44.288C184.671 44.288 186.676 45.184 188.298 46.976C190.004 48.768 190.858 51.7973 190.858 56.064C190.858 59.9893 190.09 63.9573 188.554 67.968C187.103 71.8933 185.14 75.648 182.666 79.232C180.191 82.7307 177.46 85.8453 174.474 88.576C173.876 89.1733 173.194 89.7707 172.426 90.368C171.743 90.88 171.018 91.392 170.25 91.904C172.98 92.16 175.668 91.52 178.314 89.984C181.044 88.448 183.519 86.5707 185.738 84.352C188.042 82.1333 189.919 80.128 191.37 78.336C193.076 76.1173 194.783 73.5573 196.49 70.656C198.282 67.7547 199.732 65.1947 200.842 62.976C201.183 62.3787 201.482 62.08 201.738 62.08C202.42 62.08 202.762 62.848 202.762 64.384C202.762 65.7493 202.335 67.1573 201.482 68.608C200.799 69.888 199.86 71.5093 198.666 73.472C197.471 75.4347 196.404 77.1413 195.466 78.592C191.54 84.3093 186.975 89.0027 181.77 92.672C176.564 96.3413 170.292 98.176 162.954 98.176C162.356 98.176 161.716 98.176 161.034 98.176C160.436 98.176 159.796 98.1333 159.114 98.048C157.066 97.8773 155.146 97.3653 153.354 96.512C151.562 95.744 150.367 94.2507 149.77 92.032L142.602 114.432C141.663 117.419 140.809 119.893 140.041 121.856C139.188 123.819 138.164 125.269 136.969 126.208C135.689 127.232 133.855 127.744 131.465 127.744H125.321ZM156.17 92.672C157.62 92.672 159.284 91.9467 161.162 90.496C163.039 88.96 164.874 87.0827 166.666 84.864C168.543 82.56 170.122 80.3413 171.402 78.208C173.364 74.7947 175.028 71.296 176.394 67.712C177.759 64.128 178.442 61.184 178.442 58.88C178.442 56.32 177.418 55.04 175.37 55.04C173.578 55.04 171.615 55.8933 169.482 57.6C167.946 58.7947 166.196 60.544 164.234 62.848C162.356 65.152 160.479 67.7547 158.602 70.656C156.81 73.472 155.316 76.3733 154.122 79.36C153.012 82.2613 152.458 84.9067 152.458 87.296C152.458 87.7227 152.458 88.1493 152.458 88.576C152.543 88.9173 152.628 89.3013 152.714 89.728C153.14 91.6907 154.292 92.672 156.17 92.672ZM225.489 94.208C221.563 96.256 217.425 97.28 213.073 97.28C209.403 97.28 205.99 96.384 202.833 94.592C199.675 92.8 197.542 89.9413 196.433 86.016C195.921 84.224 195.665 82.3467 195.665 80.384C195.665 77.1413 196.219 73.8133 197.329 70.4C198.523 66.9013 200.059 63.7013 201.937 60.8C204.838 56.2773 208.507 52.5227 212.945 49.536C217.382 46.5493 222.289 45.056 227.665 45.056C231.675 45.056 234.79 46.08 237.009 48.128C239.227 50.176 240.337 52.5653 240.337 55.296C240.337 58.5387 239.227 61.3973 237.009 63.872C234.875 66.2613 232.059 68.096 228.561 69.376C226.854 69.9733 225.019 70.4427 223.057 70.784C221.179 71.04 219.387 71.168 217.681 71.168C214.182 71.168 211.494 70.6987 209.617 69.76C207.995 73.9413 207.185 77.7813 207.185 81.28C207.185 84.4373 207.91 87.04 209.361 89.088C210.811 91.0507 213.115 92.032 216.273 92.032C218.918 92.032 221.521 91.3067 224.081 89.856C226.726 88.4053 229.158 86.6133 231.377 84.48C233.681 82.3467 235.601 80.2987 237.137 78.336C238.331 76.8853 239.355 75.52 240.209 74.24C241.062 72.96 241.958 71.5093 242.897 69.888C243.835 68.1813 244.945 66.0907 246.225 63.616C246.566 63.0187 246.865 62.72 247.121 62.72C247.633 62.72 247.889 63.4027 247.889 64.768C247.889 65.536 247.761 66.3893 247.505 67.328C247.334 68.1813 246.993 69.0773 246.481 70.016C245.286 72.1493 243.835 74.496 242.129 77.056C240.507 79.5307 238.843 81.92 237.137 84.224C235.601 86.272 233.851 88.1493 231.889 89.856C229.926 91.5627 227.793 93.0133 225.489 94.208ZM213.841 66.944C214.267 67.2 214.737 67.3707 215.249 67.456C215.761 67.5413 216.273 67.584 216.785 67.584C218.491 67.584 220.198 67.2 221.905 66.432C223.611 65.5787 225.062 64.7253 226.257 63.872C228.219 62.5067 229.883 60.8853 231.249 59.008C232.614 57.1307 233.382 54.9973 233.553 52.608C233.638 51.584 233.382 50.7307 232.785 50.048C232.273 49.28 231.334 48.896 229.969 48.896C229.286 48.896 228.433 49.024 227.409 49.28C226.043 49.6213 224.678 50.2613 223.312 51.2C221.947 52.1387 220.625 53.248 219.345 54.528C218.918 54.9547 218.15 55.808 217.041 57.088C216.017 58.2827 215.035 59.648 214.097 61.184C213.158 62.6347 212.689 63.9147 212.689 65.024C212.689 65.9627 213.073 66.6027 213.841 66.944ZM248.324 96.768C245.934 96.768 244.142 95.9147 242.948 94.208C241.753 92.416 241.156 90.0267 241.156 87.04C241.156 86.6133 241.156 86.1867 241.156 85.76C241.156 85.3333 241.198 84.9067 241.284 84.48C241.71 81.2373 242.436 77.568 243.46 73.472C244.569 69.376 245.849 65.0667 247.3 60.544C248.153 57.984 249.22 54.784 250.5 50.944C251.865 47.0187 253.444 42.8373 255.236 38.4C257.028 33.8773 258.99 29.3973 261.124 24.96C263.342 20.5227 265.774 16.512 268.42 12.928C271.065 9.25866 273.838 6.31466 276.74 4.09599C279.726 1.87733 282.884 0.767998 286.212 0.767998C288.942 0.767998 290.82 1.45066 291.844 2.81599C292.868 4.09599 293.38 5.63199 293.38 7.424C293.38 9.30133 293.038 11.2213 292.356 13.184C291.673 15.0613 290.99 16.64 290.308 17.92C288.772 20.992 286.766 24.448 284.292 28.288C281.817 32.128 279.214 35.712 276.484 39.04C274.862 41.1733 272.857 43.5627 270.468 46.208C268.078 48.8533 265.817 51.2853 263.684 53.504C261.636 55.7227 260.142 57.2587 259.204 58.112L257.156 64C256.558 65.6213 255.961 67.5413 255.364 69.76C254.852 71.9787 254.382 74.1973 253.956 76.416C253.614 78.5493 253.316 80.4267 253.06 82.048C252.974 82.3893 252.932 82.7307 252.932 83.072C252.932 83.4133 252.932 83.712 252.932 83.968C252.932 86.528 253.913 87.808 255.876 87.808C257.07 87.808 258.564 87.2533 260.356 86.144C262.062 85.12 263.684 83.7973 265.22 82.176C266.841 80.4693 267.993 79.1893 268.676 78.336C270.382 76.1173 272.004 73.7707 273.54 71.296C275.076 68.736 276.398 66.3893 277.508 64.256C277.934 63.5733 278.233 63.232 278.404 63.232C278.916 63.232 279.172 63.9573 279.172 65.408C279.172 66.0907 279.044 66.9013 278.788 67.84C278.617 68.6933 278.318 69.504 277.892 70.272C276.697 72.32 275.289 74.5813 273.668 77.056C272.046 79.5307 270.382 81.92 268.676 84.224C267.396 85.9307 265.604 87.7653 263.3 89.728C260.996 91.6907 258.521 93.3547 255.876 94.72C253.23 96.0853 250.713 96.768 248.324 96.768ZM261.764 50.816C266.03 45.7813 270.34 40.4053 274.692 34.688C279.129 28.8853 282.798 22.9973 285.7 17.024C285.87 16.5973 286.254 15.744 286.852 14.464C287.449 13.184 288.004 11.776 288.516 10.24C289.028 8.61867 289.284 7.25333 289.284 6.144C289.284 4.69333 288.729 3.96799 287.62 3.96799H286.724C285.614 3.96799 284.292 4.73599 282.756 6.272C281.305 7.808 279.812 9.856 278.276 12.416C276.313 15.6587 274.393 19.4133 272.516 23.68C270.638 27.8613 268.804 32.2987 267.012 36.992C265.22 41.6853 263.47 46.2933 261.764 50.816ZM279.949 96.768C277.559 96.768 275.767 95.9147 274.573 94.208C273.378 92.416 272.781 90.0267 272.781 87.04C272.781 86.6133 272.781 86.1867 272.781 85.76C272.781 85.3333 272.823 84.9067 272.909 84.48C273.335 81.2373 274.061 77.568 275.085 73.472C276.194 69.376 277.474 65.0667 278.925 60.544C279.778 57.984 280.845 54.784 282.125 50.944C283.49 47.0187 285.069 42.8373 286.861 38.4C288.653 33.8773 290.615 29.3973 292.749 24.96C294.967 20.5227 297.399 16.512 300.045 12.928C302.69 9.25866 305.463 6.31466 308.365 4.09599C311.351 1.87733 314.509 0.767998 317.837 0.767998C320.567 0.767998 322.445 1.45066 323.469 2.81599C324.493 4.09599 325.005 5.63199 325.005 7.424C325.005 9.30133 324.663 11.2213 323.981 13.184C323.298 15.0613 322.615 16.64 321.933 17.92C320.397 20.992 318.391 24.448 315.917 28.288C313.442 32.128 310.839 35.712 308.109 39.04C306.487 41.1733 304.482 43.5627 302.093 46.208C299.703 48.8533 297.442 51.2853 295.309 53.504C293.261 55.7227 291.767 57.2587 290.829 58.112L288.781 64C288.183 65.6213 287.586 67.5413 286.989 69.76C286.477 71.9787 286.007 74.1973 285.581 76.416C285.239 78.5493 284.941 80.4267 284.685 82.048C284.599 82.3893 284.557 82.7307 284.557 83.072C284.557 83.4133 284.557 83.712 284.557 83.968C284.557 86.528 285.538 87.808 287.501 87.808C288.695 87.808 290.189 87.2533 291.981 86.144C293.687 85.12 295.309 83.7973 296.845 82.176C298.466 80.4693 299.618 79.1893 300.301 78.336C302.007 76.1173 303.629 73.7707 305.165 71.296C306.701 68.736 308.023 66.3893 309.133 64.256C309.559 63.5733 309.858 63.232 310.029 63.232C310.541 63.232 310.797 63.9573 310.797 65.408C310.797 66.0907 310.669 66.9013 310.413 67.84C310.242 68.6933 309.943 69.504 309.517 70.272C308.322 72.32 306.914 74.5813 305.293 77.056C303.671 79.5307 302.007 81.92 300.301 84.224C299.021 85.9307 297.229 87.7653 294.925 89.728C292.621 91.6907 290.146 93.3547 287.501 94.72C284.855 96.0853 282.338 96.768 279.949 96.768ZM293.389 50.816C297.655 45.7813 301.965 40.4053 306.317 34.688C310.754 28.8853 314.423 22.9973 317.325 17.024C317.495 16.5973 317.879 15.744 318.477 14.464C319.074 13.184 319.629 11.776 320.141 10.24C320.653 8.61867 320.909 7.25333 320.909 6.144C320.909 4.69333 320.354 3.96799 319.245 3.96799H318.349C317.239 3.96799 315.917 4.73599 314.381 6.272C312.93 7.808 311.437 9.856 309.901 12.416C307.938 15.6587 306.018 19.4133 304.141 23.68C302.263 27.8613 300.429 32.2987 298.637 36.992C296.845 41.6853 295.095 46.2933 293.389 50.816ZM343.83 96.768C341.184 96.768 339.35 95.744 338.326 93.696C337.387 91.648 336.918 89.1307 336.918 86.144C336.918 83.4133 337.174 80.7253 337.686 78.08C337.942 76.8853 338.198 75.6907 338.454 74.496C338.795 73.216 339.179 71.8933 339.606 70.528C338.155 73.1733 336.619 75.7333 334.998 78.208C333.462 80.6827 331.883 82.8587 330.262 84.736C327.531 88.064 324.63 90.8373 321.558 93.056C318.571 95.2747 315.584 96.384 312.598 96.384C310.208 96.384 308.16 95.5307 306.454 93.824C304.832 92.032 304.022 88.96 304.022 84.608C304.022 80.1707 304.79 75.6053 306.326 70.912C307.862 66.2187 309.995 61.8667 312.726 57.856C315.542 53.76 318.827 50.4747 322.582 48C326.422 45.5253 330.603 44.288 335.126 44.288C336.576 44.288 338.155 44.5013 339.862 44.928C341.568 45.3547 343.147 46.1653 344.598 47.36C346.048 48.4693 347.03 50.048 347.542 52.096C347.627 51.9253 347.712 51.7973 347.798 51.712C347.968 51.6267 348.096 51.5413 348.182 51.456C349.376 49.5787 350.742 48 352.278 46.72C353.814 45.44 355.52 44.8 357.398 44.8C358.336 44.8 359.659 44.8427 361.366 44.928C363.072 45.0133 364.31 45.0133 365.077 44.928C364.651 45.2693 364.054 45.952 363.286 46.976C362.603 48 361.963 49.0667 361.366 50.176C360.768 51.2 360.299 52.0107 359.958 52.608C357.654 57.0453 355.563 61.44 353.686 65.792C351.808 70.144 350.358 74.3253 349.334 78.336C349.078 79.1893 348.907 80 348.822 80.768C348.736 81.4507 348.694 82.1333 348.694 82.816C348.694 85.0347 349.419 86.144 350.87 86.144C352.235 86.144 353.942 85.2907 355.99 83.584C358.976 81.1947 361.579 78.208 363.798 74.624C366.102 71.04 368.107 67.584 369.814 64.256C370.155 63.6587 370.454 63.36 370.71 63.36C371.222 63.36 371.478 64.0853 371.478 65.536C371.478 66.2187 371.35 66.9867 371.094 67.84C370.923 68.6933 370.624 69.504 370.198 70.272C369.003 72.32 367.424 74.8373 365.462 77.824C363.584 80.8107 361.451 83.7547 359.062 86.656C356.672 89.472 354.155 91.8613 351.51 93.824C348.95 95.7867 346.39 96.768 343.83 96.768ZM318.358 85.632C318.614 85.7173 318.998 85.76 319.51 85.76C321.131 85.76 322.88 85.0773 324.758 83.712C326.635 82.3467 328.512 80.5973 330.39 78.464C332.267 76.2453 333.931 74.0267 335.382 71.808C339.136 65.8347 341.91 61.3547 343.702 58.368C345.494 55.3813 346.518 53.6747 346.774 53.248C346.347 51.7973 345.579 50.7307 344.47 50.048C343.446 49.3653 342.208 49.024 340.758 49.024C338.88 49.024 336.875 49.536 334.742 50.56C332.694 51.584 330.944 52.8213 329.494 54.272C327.275 56.4907 325.142 59.3493 323.094 62.848C321.131 66.3467 319.51 69.8027 318.23 73.216C317.035 76.6293 316.438 79.488 316.438 81.792C316.438 83.9253 317.078 85.2053 318.358 85.632ZM386.41 96.896C383.679 96.896 381.716 95.744 380.522 93.44C379.583 91.392 379.114 88.96 379.114 86.144C379.114 82.9867 379.583 79.488 380.522 75.648C381.46 71.808 382.74 67.8827 384.362 63.872C384.959 62.4213 385.727 60.5867 386.666 58.368C387.69 56.1493 388.884 53.9733 390.25 51.84C389.055 52.864 387.647 53.7173 386.026 54.4C384.404 54.9973 382.826 55.296 381.29 55.296C380.095 55.296 379.114 55.1253 378.346 54.784C377.663 56.1493 376.554 58.368 375.018 61.44C373.482 64.512 371.434 68.1387 368.874 72.32C368.618 72.7467 368.362 72.7467 368.106 72.32C367.935 71.808 367.85 71.1253 367.85 70.272C367.85 69.5893 367.935 68.864 368.106 68.096C368.276 67.328 368.532 66.6027 368.874 65.92C369.727 64.2987 370.58 62.6347 371.434 60.928C372.287 59.136 373.055 57.5573 373.738 56.192C374.42 54.8267 374.804 53.9733 374.89 53.632C373.354 52.864 372.202 51.7973 371.434 50.432C370.666 48.9813 370.282 47.5733 370.282 46.208C370.282 44.8427 370.58 43.6053 371.178 42.496C371.86 41.3867 372.842 40.5333 374.122 39.936C374.89 39.68 375.615 39.552 376.298 39.552C378.175 39.552 379.711 40.1493 380.906 41.344C380.82 41.6853 380.735 42.0693 380.65 42.496C380.65 42.8373 380.65 43.2213 380.65 43.648C380.65 46.2933 381.716 48.256 383.85 49.536C385.983 50.816 388.287 51.2853 390.762 50.944C391.956 49.2373 393.322 47.744 394.858 46.464C396.394 45.184 398.058 44.544 399.85 44.544C400.788 44.544 402.111 44.5867 403.818 44.672C405.61 44.7573 406.89 44.7573 407.658 44.672C407.146 45.0133 406.548 45.696 405.866 46.72C405.183 47.744 404.543 48.8107 403.946 49.92C403.348 51.0293 402.879 51.8827 402.538 52.48C400.234 56.9173 398.1 61.3547 396.138 65.792C394.175 70.144 392.682 74.3253 391.658 78.336C391.487 79.104 391.316 79.8293 391.146 80.512C391.06 81.1093 391.018 81.7493 391.018 82.432C391.018 84.992 391.871 86.272 393.578 86.272C394.772 86.272 396.479 85.4187 398.698 83.712C400.66 82.0907 402.41 80.2987 403.946 78.336C405.652 76.1173 407.274 73.728 408.81 71.168C410.346 68.608 411.668 66.2613 412.778 64.128C413.204 63.4453 413.503 63.104 413.674 63.104C414.186 63.104 414.442 63.872 414.442 65.408C414.442 66.0053 414.356 66.7307 414.186 67.584C414.015 68.4373 413.716 69.248 413.29 70.016C412.01 72.1493 410.559 74.496 408.938 77.056C407.316 79.5307 405.652 81.9627 403.946 84.352C402.836 85.888 401.258 87.6373 399.21 89.6C397.247 91.5627 395.114 93.2693 392.81 94.72C390.591 96.1707 388.458 96.896 386.41 96.896ZM436.197 34.56C433.978 33.792 432.869 32.3413 432.869 30.208C432.869 28.2453 433.637 26.24 435.173 24.192C436.794 22.0587 438.543 20.6933 440.421 20.096C440.847 19.9253 441.189 19.84 441.444 19.84C441.786 19.84 442.127 19.84 442.469 19.84C443.919 19.84 445.114 20.2667 446.053 21.12C446.991 21.9733 447.461 22.9547 447.461 24.064C447.461 25.6 446.65 26.88 445.029 27.904C443.749 27.7333 442.511 28.032 441.317 28.8C440.122 29.568 439.055 30.5067 438.117 31.616C437.263 32.7253 436.623 33.7067 436.197 34.56ZM414.181 96.768C413.071 96.768 412.005 96.512 410.981 96C409.957 95.5733 409.103 94.6773 408.421 93.312C407.482 91.264 407.013 88.832 407.013 86.016C407.013 82.944 407.482 79.5307 408.421 75.776C409.359 71.936 410.597 68.0107 412.133 64C412.73 62.5493 413.498 60.7573 414.437 58.624C415.375 56.4907 416.485 54.3573 417.765 52.224C419.045 50.0907 420.495 48.3413 422.117 46.976C423.823 45.5253 425.658 44.8 427.621 44.8C428.559 44.8 429.882 44.8427 431.589 44.928C433.295 45.0133 434.533 45.0133 435.301 44.928C434.789 45.2693 434.191 45.952 433.509 46.976C432.826 48 432.186 49.0667 431.589 50.176C430.991 51.2 430.522 52.0107 430.181 52.608C427.962 57.0453 425.871 61.44 423.909 65.792C421.946 70.144 420.453 74.3253 419.429 78.336C419.258 79.0187 419.13 79.7013 419.045 80.384C418.959 81.0667 418.917 81.7067 418.917 82.304C418.917 84.7787 419.727 86.016 421.349 86.016C422.031 86.016 422.757 85.8453 423.525 85.504C424.378 85.0773 425.359 84.4373 426.469 83.584C428.431 82.048 430.138 80.2987 431.589 78.336C433.295 76.1173 434.917 73.7707 436.453 71.296C437.989 68.736 439.311 66.3893 440.421 64.256C440.847 63.5733 441.146 63.232 441.317 63.232C441.829 63.232 442.085 63.9573 442.085 65.408C442.085 66.0907 441.957 66.9013 441.701 67.84C441.53 68.6933 441.231 69.504 440.805 70.272C439.61 72.32 438.202 74.5813 436.581 77.056C434.959 79.5307 433.295 81.92 431.589 84.224C430.394 85.8453 428.815 87.6373 426.853 89.6C424.89 91.5627 422.799 93.2693 420.581 94.72C418.362 96.0853 416.229 96.768 414.181 96.768Z" fill="white"/>
</svg>
